{"title":"The.Encounter: Paradise.Lost.2012.DVDRiP.XviD Acesn8s","uid":8342535,"size":749049072,"categoryP":"video","categoryS":"movies","magnet":"?xt=urn:btih:bf5861e6b6543ee3fd2af255365bcbed0da7e686&amp;dn=The.Encounter%3A+Paradise.Lost.2012.DVDRiP.XviD+Acesn8s&amp;tr=udp%3A%2F%2Ftracker.openbittorrent.com%3A80&amp;tr=udp%3A%2F%2Fopen.demonii.com%3A1337&amp;tr=udp%3A%2F%2Ftracker.coppersurfer.tk%3A6969&amp;tr=udp%3A%2F%2Fexodus.desync.com%3A6969","seeders":7,"leechers":1,"uploader":"Acesn8s","files":-1,"time":1365121830,"description":"The.Encounter.Paradise.Lost.2012.DVDRiP.XviD Acesn8s\n\nFormat                                   : AVI\nFormat/Info                              : Audio Video Interleave\nFile size                                : 705 MiB\nDuration                                 : 1h 44mn\nOverall bit rate                         : 943 Kbps\nWriting library                          : VirtualDub build 34807/release\n\nVideo\nID                                       : 0\nFormat                                   : MPEG-4 Visual\nFormat profile                           : Advanced Simple@L5\nFormat settings, BVOP                    : 2\nFormat settings, QPel                    : No\nFormat settings, GMC                     : No warppoints\nFormat settings, Matrix                  : Default (H.263)\nMuxing mode                              : Packed bitstream\nCodec ID                                 : XVID\nCodec ID/Hint                            : XviD\nDuration                                 : 1h 44mn\nBit rate                                 : 791 Kbps\nWidth                                    : 720 pixels\nHeight                                   : 400 pixels\nDisplay aspect ratio                     : 16:9\nFrame rate                               : 23.976 fps\nColor space                              : YUV\nChroma subsampling                       : 4:2:0\nBit depth                                : 8 bits\nScan type                                : Progressive\nCompression mode                         : Lossy\nBits/(Pixel*Frame)                       : 0.046\nStream size                              : 592 MiB (84%)\nWriting library                          : XviD 64\n\nAudio\nID                                       : 1\nFormat                                   : MPEG Audio\nFormat version                           : Version 1\nFormat profile                           : Layer 3\nMode                                     : Joint stereo\nMode extension                           : MS Stereo\nCodec ID                                 : 55\nCodec ID/Hint                            : MP3\nDuration                                 : 1h 44mn\nBit rate mode                            : Constant\nBit rate                                 : 128 Kbps\nChannel(s)                               : 2 channels\nSampling rate                            : 48.0 KHz\nCompression mode                         : Lossy\nStream size                              : 95.7 MiB (14%)\nAlignment                                : Split accross interleaves\nInterleave, duration                     : 17 ms (1.00 video frame)\nInterleave, preload duration             : 500 ms\nWriting library                          : LAME3.99.5\nSubs                                     : English .srt\n\nIMDb:\n &lt;a href=&quot;\nhttp://www.imdb.com/title/tt2209792/&quot; rel=&quot;nofollow&quot; target=&quot;_NEW&quot;&gt;\nhttp://www.imdb.com/title/tt2209792/&lt;/a&gt;\n\nCast: \n\nDavid A.R. White, Bruce Marchiano, Gary Daniels\n\nPlot: \n\nSeven years after the world's most devastating tsunami in Thailand six strangers \nfind themselves trapped in a beach side resort on the brink of an oncoming hurricane. Each of their hearts are broken and silently cry out on the most desperate night of their lives. As the storm rages on and the six strangers fall deeper into the heart of darkness another guest arrives at the hotel. He says he is Jesus Christ, and he knows what each of them suffers from. Knowing their dire need, he came to bring them all a message of hope and rescue them from the darkest corners of their own hearts.\n\nScreens:\n &lt;a href=&quot;\nhttp://image.bayimg.com/718bfab13dcafaa62995c08af850a40d1f5c311a.jpg&quot; rel=&quot;nofollow&quot; target=&quot;_NEW&quot;&gt;\nhttp://image.bayimg.com/718bfab13dcafaa62995c08af850a40d1f5c311a.jpg&lt;/a&gt;\n &lt;a href=&quot;\nhttp://image.bayimg.com/f6091fadca8d5929e2711c4374fc76b66ee1aad3.jpg&quot; rel=&quot;nofollow&quot; target=&quot;_NEW&quot;&gt;\nhttp://image.bayimg.com/f6091fadca8d5929e2711c4374fc76b66ee1aad3.jpg&lt;/a&gt;\n &lt;a href=&quot;\nhttp://image.bayimg.com/45eecc1b342dd89258886ca5fcdd76b2f46e00ed.jpg&quot; rel=&quot;nofollow&quot; target=&quot;_NEW&quot;&gt;\nhttp://image.bayimg.com/45eecc1b342dd89258886ca5fcdd76b2f46e00ed.jpg&lt;/a&gt;\n &lt;a href=&quot;\nhttp://image.bayimg.com/71f00aa7dc46497033364261c0663621963a460a.jpg&quot; rel=&quot;nofollow&quot; target=&quot;_NEW&quot;&gt;\nhttp://image.bayimg.com/71f00aa7dc46497033364261c0663621963a460a.jpg&lt;/a&gt;\n &lt;a href=&quot;\nhttp://image.bayimg.com/03221b57c0d77830a0b14c6b33f2a1ecc8a111b6.jpg&quot; rel=&quot;nofollow&quot; target=&quot;_NEW&quot;&gt;\nhttp://image.bayimg.com/03221b57c0d77830a0b14c6b33f2a1ecc8a111b6.jpg&lt;/a&gt;","torrent":{"xt":"urn:btih:bf5861e6b6543ee3fd2af255365bcbed0da7e686","amp;dn":"The.Encounter%3A+Paradise.Lost.2012.DVDRiP.XviD+Acesn8s","amp;tr":["udp%3A%2F%2Ftracker.openbittorrent.com%3A80","udp%3A%2F%2Fopen.demonii.com%3A1337","udp%3A%2F%2Ftracker.coppersurfer.tk%3A6969","udp%3A%2F%2Fexodus.desync.com%3A6969"],"infoHash":"bf5861e6b6543ee3fd2af255365bcbed0da7e686","infoHashBuffer":{"type":"Buffer","data":[191,88,97,230,182,84,62,227,253,42,242,85,54,91,203,237,13,167,230,134]},"announce":[],"urlList":[]}}